<!-- Generated by IcoMoon.io -->
<svg version="1.1" xmlns="http://www.w3.org/2000/svg" width="512" height="512" viewBox="0 0 512 512">
<title>icon-dc_compass</title>
<path d="M256 475.43c-120.99 0-219.43-98.44-219.43-219.43s98.44-219.43 219.43-219.43 219.43 98.44 219.43 219.43-98.44 219.43-219.43 219.43zM256 73.14c-100.83 0-182.86 82.030-182.86 182.86s82.030 182.86 182.86 182.86 182.86-82.030 182.86-182.86-82.030-182.86-182.86-182.86z"></path>
<path d="M286.52 176.8l-79.2 30.71-61.42 158.4 158.4-61.42 61.42-158.4-79.2 30.71zM271.97 272.16c-8.93 8.93-23.4 8.93-32.32 0-8.93-8.93-8.93-23.4 0-32.32 8.93-8.93 23.4-8.93 32.32 0 8.93 8.92 8.93 23.4 0 32.32z"></path>
</svg>
