<!-- Generated by IcoMoon.io -->
<svg version="1.1" xmlns="http://www.w3.org/2000/svg" width="20" height="20" viewBox="0 0 512 512">
<title>icon-dc_user</title>
<path d="M330.057 268.868c32.617-23.223 53.943-61.303 53.943-104.297 0-70.583-57.417-128-128-128s-128 57.417-128 128c0 42.994 21.326 81.075 53.943 104.297-84.663 30.445-145.371 111.543-145.371 206.56 0 0 0 0 0 0h36.572c0 0 0 0 0 0 0-100.823 82.034-182.857 182.857-182.857s182.857 82.034 182.857 182.857c0 0 0 0 0 0h36.572c0 0 0 0 0 0 0-95.017-60.709-176.115-145.371-206.56zM164.571 164.571c0-50.423 41.006-91.428 91.429-91.428s91.428 41.005 91.428 91.428-41.005 91.429-91.428 91.429-91.428-41.005-91.428-91.428z"></path>
</svg>
