<!-- Generated by IcoMoon.io -->
<svg version="1.1" xmlns="http://www.w3.org/2000/svg" width="512" height="512" viewBox="0 0 512 512">
<title>icon-dc_github</title>
<path d="M256 36.57c-121.23 0-219.43 98.58-219.43 220.29 0 97.48 62.81 179.81 150.030 209 10.97 1.93 15.090-4.68 15.090-10.46 0-5.23-0.27-22.58-0.27-41.030-55.13 10.19-69.39-13.49-73.78-25.88-2.47-6.33-13.17-25.88-22.49-31.12-7.68-4.13-18.65-14.32-0.27-14.59 17.28-0.28 29.62 15.97 33.74 22.58 19.75 33.32 51.29 23.96 63.91 18.17 1.92-14.32 7.68-23.96 13.99-29.46-48.82-5.51-99.84-24.51-99.84-108.77 0-23.96 8.5-43.78 22.49-59.2-2.19-5.51-9.87-28.090 2.19-58.38 0 0 18.38-5.78 60.34 22.58 17.55-4.96 36.21-7.43 54.86-7.43s37.3 2.48 54.86 7.43c41.97-28.64 60.34-22.58 60.34-22.58 12.070 30.29 4.39 52.87 2.19 58.38 13.99 15.42 22.49 34.97 22.49 59.2 0 84.54-51.29 103.26-100.11 108.77 7.95 6.88 14.81 20.1 14.81 40.75 0 29.46-0.27 53.15-0.27 60.58 0 5.78 4.11 12.67 15.090 10.46 86.67-29.19 149.49-111.8 149.49-209-0.020-121.71-98.22-220.29-219.45-220.29z"></path>
</svg>
