<!-- Generated by IcoMoon.io -->
<svg version="1.1" xmlns="http://www.w3.org/2000/svg" width="512" height="512" viewBox="0 0 512 512">
<title>icon-dc_repairs</title>
<path d="M330.93 262.71l-12.93 12.93 130.44 130.44c11.68 11.69 11.68 30.7 0 42.38-5.66 5.66-13.19 8.78-21.19 8.78s-15.53-3.12-21.19-8.78l-130.48-130.48-12.93 12.93 130.48 130.48c9.41 9.41 21.76 14.11 34.12 14.11s24.71-4.7 34.12-14.11c18.81-18.81 18.81-49.43 0-68.24l-130.44-130.44z"></path>
<path d="M119.23 165.37l72.23 72.23 12.93-12.93-77.59-77.58h-31.55l-34.22-62.53 23.5-23.5 62.53 34.21v31.56l77.75 77.74 12.93-12.93-72.39-72.39v-34.82l-84.060-45.99-42.87 42.88 45.99 84.050z"></path>
<path d="M375.29 193.89l1.090 0.35 0.030-0.030c3 0.74 6.040 1.3 9.080 1.69 3.39 0.43 6.75 0.64 10.080 0.64 39.67 0 74.18-29.59 79.28-69.95 1.7-13.43-0.050-27.14-5.040-39.65l-5.15-12.88-55.38 55.41-27.39-27.53 54.82-55.77-14.85-5.12c-1.38-0.47-11.63-3.24-16.32-3.83-43.74-5.53-83.84 25.57-89.36 69.32-1.32 10.47-0.59 20.82 2.14 30.87l-181.58 180.64-1.020-0.33-0.080 0.090c-3-0.74-6.040-1.3-9.080-1.69-43.75-5.54-83.84 25.57-89.36 69.32-1.7 13.43 0.050 27.14 5.040 39.65l5.15 12.88 55.38-55.41 27.39 27.53-54.82 55.76 14.85 5.12c1.39 0.47 11.64 3.24 16.32 3.83 3.39 0.43 6.75 0.64 10.080 0.64 39.67 0 74.19-29.59 79.28-69.95 1.33-10.49 0.59-20.87-2.16-30.93l181.58-180.67zM177.74 403.2c-4.22 33.38-34.53 57.22-67.84 53.6l34.21-34.8c3.16-3.17 4.91-7.38 4.92-11.86 0.010-4.5-1.73-8.74-4.9-11.92l-29.41-29.56c-6.55-6.59-17.24-6.61-23.85-0.040l-35.43 35.45c-0.75-5.38-0.79-10.88-0.11-16.31 4.26-33.75 35.18-57.72 68.93-53.47 3.91 0.49 7.81 1.38 11.61 2.63l5.78 1.9 0.060-0.070 0.080 0.080 197.44-196.42-1.84-5.18c-3.26-9.16-4.3-18.71-3.080-28.38 4.22-33.38 34.51-57.21 67.84-53.6l-34.22 34.81c-6.54 6.56-6.56 17.21-0.020 23.79l29.41 29.56c6.55 6.59 17.24 6.61 23.84 0.040l35.43-35.44c0.75 5.38 0.79 10.88 0.11 16.31-3.93 31.13-30.56 53.96-61.16 53.96-2.57 0-5.16-0.16-7.78-0.49-3.91-0.49-7.82-1.38-11.61-2.62l-5.78-1.9-0.040 0.050-0.13-0.13-197.33 196.31 0.14 0.14h-0.2l1.84 5.18c3.27 9.16 4.31 18.71 3.090 28.38z"></path>
</svg>
