<!-- Generated by IcoMoon.io -->
<svg version="1.1" xmlns="http://www.w3.org/2000/svg" width="512" height="512" viewBox="0 0 512 512">
<title>icon-dc_status</title>
<path d="M256 36.57c-1.95 0-3.89 0.030-5.83 0.080l2.34 37.32c1.16-0.020 2.33-0.040 3.5-0.040 100.56 0 182.080 81.52 182.080 182.080s-81.53 182.070-182.090 182.070-182.080-81.52-182.080-182.080c0-25.35 5.18-49.48 14.54-71.41l-35.53-11.84c-10.53 25.67-16.36 53.78-16.36 83.25 0 121.19 98.24 219.43 219.43 219.43s219.43-98.24 219.43-219.43-98.24-219.43-219.43-219.43z"></path>
</svg>
