<!-- Generated by IcoMoon.io -->
<svg version="1.1" xmlns="http://www.w3.org/2000/svg" width="512" height="512" viewBox="0 0 512 512">
<title>icon-dc_whistle</title>
<path d="M213.95 181.8c-25.11 0-48.5 7.5-68.050 20.37-6.15-23.85-27.84-41.52-53.58-41.52-30.5 0-55.32 24.82-55.32 55.32s24.82 55.32 55.32 55.32c0.83 0 1.65-0.030 2.47-0.060-3.19 10.97-4.91 22.56-4.91 34.55 0 68.46 55.7 124.16 124.16 124.16 62.15 0 113.76-46 122.63-105.76h138.83v-142.38h-261.55zM92.32 234.68c-10.32 0-18.71-8.39-18.71-18.71s8.39-18.71 18.71-18.71c10.32 0 18.71 8.39 18.71 18.71s-8.39 18.71-18.71 18.71zM438.89 287.56h-137.49v18.3c0 48.23-39.19 87.46-87.37 87.46-48.27 0-87.55-39.27-87.55-87.55 0-48.17 39.23-87.37 87.46-87.37h224.95v69.16zM213.26 86.7h-18.3v62.58h18.3v-62.58zM284.96 112.27l-15.7-9.42-31.29 52.15 15.7 9.42 31.29-52.15zM170.24 155l-31.29-52.15-15.7 9.42 31.29 52.15 15.7-9.42z"></path>
</svg>
