<!-- Generated by IcoMoon.io -->
<svg version="1.1" xmlns="http://www.w3.org/2000/svg" width="512" height="512" viewBox="0 0 512 512">
<title>icon-dc_moneybagwithcoin</title>
<path d="M346.47 475.3h-180.94c-48.941-0.057-88.599-39.719-88.65-88.655v-0.005c0-101.56 33.36-165.34 61.34-200.95 11.45-14.619 24.192-27.387 38.301-38.496l0.479-0.363-52-83.22 27.88-13.93c2.65-1.33 26.77-13 52.88-13 14.66 0 25.89 3.74 34.090 6.48 6.45 2.15 10.71 3.57 16.17 3.57s9.72-1.42 16.16-3.57c8.21-2.74 19.44-6.48 34.1-6.48 26.14 0 50.24 11.72 52.91 13l27.81 13.93-52 83.22c14.584 11.473 27.322 24.24 38.401 38.372l0.369 0.488c28 35.61 61.34 99.39 61.34 201-0.079 48.916-39.721 88.548-88.634 88.61h-0.006zM207.14 170.12c-15.441 10.841-28.677 23.447-39.834 37.752l-0.306 0.407c-24.42 31.080-53.53 87.25-53.53 178.36 0.028 28.753 23.327 52.056 52.077 52.090h180.923c28.753-0.034 52.051-23.337 52.080-52.087v-0.002c0-91.11-29.11-147.28-53.53-178.36v0c-11.469-14.714-24.711-27.321-39.577-37.772l-0.583-0.388zM211.81 133.55h88.38l34.16-54.67c-7.080-2.59-17.68-5.67-28.090-5.67-8.72 0-15.43 2.23-22.53 4.6-8 2.68-16.33 5.45-27.73 5.45s-19.71-2.77-27.74-5.45c-7.090-2.37-13.8-4.6-22.52-4.6-10.41 0-21 3.080-28.090 5.67z"></path>
<path d="M238.83 209.22c-24.167 0.375-43.614 20.054-43.614 44.275s19.447 43.9 43.579 44.274l0.035 0c1.3 0 2.57-0.090 3.83-0.2-0.078-1.108-0.123-2.402-0.123-3.705 0-24.704 16.048-45.661 38.288-53.012l0.394-0.113c-5.656-18.386-22.49-31.518-42.389-31.52h-0zM238.83 271.22l-9.15-1.65 4.12-22.57c-1.086 0.167-2.339 0.262-3.613 0.262-1.619 0-3.201-0.154-4.733-0.447l0.156 0.025-0.92-0.16v-6.23h1.12c4.76 0.11 8.5-0.7 11.24-4.6l0.41-0.59 7.63 1.38z"></path>
<path d="M283.33 347.63c-18.486-5.288-32.817-19.377-38.345-37.325l-0.105-0.396c-1.607-0.207-3.467-0.325-5.354-0.325-24.433 0-44.24 19.807-44.24 44.24s19.807 44.24 44.24 44.24c24.433 0 44.24-19.807 44.24-44.24 0-2.185-0.159-4.334-0.464-6.434l0.029 0.239zM244.2 371.72l-9.81-20.78c-1.928 1.844-4.159 3.39-6.607 4.555l-0.153 0.065-0.85 0.4-3.6-5.080 0.93-0.65c3.9-2.71 6.5-5.5 6.48-10.27v-0.71l7-3.31 15 31.81z"></path>
<path d="M336.32 271.080c-7.88-12.952-21.918-21.469-37.947-21.469-24.45 0-44.27 19.82-44.27 44.27s19.821 44.27 44.27 44.27c8.42 0 16.291-2.351 22.993-6.432l-0.195 0.111c12.955-7.877 21.477-21.916 21.477-37.946 0-8.423-2.353-16.297-6.438-23l0.111 0.195zM289.77 315.13l-2.080-7.42 0.4-0.45c4.39-4.9 5.6-6.41 7.61-9.52 2.93-4.62 3.94-8.64 3-11.94-0.46-1.64-1.57-3.44-4.18-2.7-1.69 0.48-2.82 1.58-2.8 5.43v1.080l-9.29 0.35v-1.16c0-7.31 3.3-11.81 10.17-13.74 1.286-0.44 2.769-0.694 4.31-0.694 2.063 0 4.019 0.455 5.774 1.269l-0.085-0.036c2.901 1.569 5.026 4.257 5.813 7.471l0.017 0.079c1.31 4.65 0.47 9.41-2.57 14.54-1.226 2.055-2.547 3.834-4.026 5.469l0.026-0.029 11.66-3.29 2.24 8z"></path>
</svg>
