<!-- Generated by IcoMoon.io -->
<svg version="1.1" xmlns="http://www.w3.org/2000/svg" width="512" height="512" viewBox="0 0 512 512">
<title>icon-dc_wlan</title>
<path d="M255.58 407.68c-0.010 0.010-0.010 0.010 0 0v0c0 0.010 0 0.010 0 0v0c0 0 0 0 0 0z"></path>
<path d="M255.7 346.080v0c0.010 0 0.010 0 0.010 0h-0.010z"></path>
<path d="M255.7 346.090c-7.93 0.030-15.8 3.010-21.84 9.040-6.030 6.030-9.010 13.88-9.020 21.81v0c0.010 7.93 2.97 15.78 8.98 21.79 6 6 13.83 8.95 21.76 8.95 0 0 0 0 0 0s0 0 0 0c7.93-0.020 15.77-3.010 21.8-9.040 6.040-6.040 9.050-13.88 9.060-21.82l0.010-0.020c0.010-7.93-2.97-15.75-8.95-21.76-6.020-5.98-13.84-8.96-21.8-8.95z"></path>
<path d="M91.44 256.2l31.37 31.37c73.31-73.2 192.49-73.11 265.87 0.17l31.47-31.47c-45.34-45.3-104.81-67.93-164.37-67.95-59.56 0-119.020 22.6-164.34 67.88z"></path>
<path d="M147.29 312.16l31.39 31.39c20.51-20.48 47.94-31.81 76.97-31.79 28.98-0.020 56.41 11.37 77.010 31.9l0.010-0.010 0.060 0.060 31.52-31.52c-29.93-29.88-69.16-44.81-108.48-44.82-39.33-0.010-78.56 14.91-108.48 44.79z"></path>
<path d="M474.95 200.5c-121.050-121.050-317.32-121.050-438.37 0l31.31 31.31c103.59-103.59 272.15-103.59 375.75 0 0.16 0.16 0.32 0.33 0.48 0.5l31.31-31.31c-0.16-0.16-0.32-0.33-0.48-0.5z"></path>
</svg>
