<!-- Generated by IcoMoon.io -->
<svg version="1.1" xmlns="http://www.w3.org/2000/svg" width="512" height="512" viewBox="0 0 512 512">
<title>icon-dc_loading</title>
<path d="M109.38 142.58l-27.9-22.43c-13.17 16.090-24.050 34.13-32.15 53.6l32.94 14.11c6.8-16.47 15.97-31.71 27.11-45.28z"></path>
<path d="M163.37 98.16l-16.69-31.69c-19.010 10.18-36.32 23.14-51.38 38.34l25.61 25.010c12.46-12.53 26.77-23.23 42.46-31.66z"></path>
<path d="M228.62 77.99l-3.69-35.63c-20.74 2.2-40.6 7.37-59.16 15.070l13.65 33.12c15.44-6.4 31.96-10.71 49.2-12.56z"></path>
<path d="M247.81 41.14v35.81c98.73 0 179.050 80.32 179.050 179.050s-80.32 179.050-179.050 179.050c-51.080 0-97.19-21.53-129.84-55.95h69.41v-35.81h-132.050v125.33h35.81v-65.75c39.23 41.82 94.94 67.99 156.67 67.99 118.47 0 214.86-96.38 214.86-214.86s-96.39-214.86-214.86-214.86z"></path>
</svg>
