<!-- Generated by IcoMoon.io -->
<svg version="1.1" xmlns="http://www.w3.org/2000/svg" width="512" height="512" viewBox="0 0 512 512">
<title>icon-dc_ActiveShuttle_platform-lift</title>
<path d="M475.48 401.75v-51.3c0-33.71-26.53-47.59-44.36-48.68l-0.56-0.040h-229.26l-0.43-219.040c0.46-21.020-7.74-32.18-14.72-37.85-14.17-11.51-31.67-7.79-33.61-7.34l-0.36 0.090c-0.49 0.13-48.99 12.62-76.090 19.39-32.99 8.25-40.14 40.84-39.34 57.5v287.87c0 16.53 7.29 26.76 13.4 32.42 10.98 10.18 25.62 12.73 34.6 13.26 0 0.040 0 0.080 0 0.12h3.52c0.49 0 0.95 0.010 1.38 0h31.69c0-26.99 15.21-56.030 48.6-56.030 32.78 0 47.46 28.14 47.46 56.030h36.59c0-0.010 0-0.010 0-0.020 22.87 0.080 73.48 0.24 115.7 0.24 28.39 0 52.97-0.070 62.73-0.29 17.080-0.39 27.090-7.75 32.49-13.87 10.77-12.17 10.83-27.73 10.57-32.46zM437.48 410.010c-0.77 0.88-2.98 1.44-5.89 1.5-25 0.57-154.55 0.12-183.72 0.020-12.12-33.87-41.23-55.99-77.93-55.99-37.19 0-66.69 22.11-78.98 55.97l-0.29-0.010-0.69 0.050c-4.39 0.26-12.040-0.86-14.99-3.65-0.49-0.46-1.64-1.55-1.64-5.55v-288.36l0.010-0.39-0.030-0.56c-0.070-1.79-0.37-17.56 11.65-20.56 25.57-6.39 70.030-17.83 75.74-19.3 0.010 0 0.020 0 0.030 0l0.12-0.040c0.27-0.070 0.43-0.11 0.45-0.12l-0.55 0.15c0.77-0.090 1.79-0.040 2.31 0.11 0.32 0.57 1.37 2.91 1.22 8.74l-0.010 0.25 0.5 256.050h264.27c6.53 0.86 9.84 4.94 9.84 12.13v51.91l0.090 1.85c0.040 0.51-0.2 4.32-1.51 5.8z"></path>
<path d="M196.82 438.72c0 15.16-12.29 27.45-27.45 27.45s-27.45-12.29-27.45-27.45c0-15.16 12.29-27.45 27.45-27.45s27.45 12.29 27.45 27.45z"></path>
<path d="M288.15 283.34l0.020 0.020 57.5-57.5-19.41-19.41-24.24 24.25v-111.78h-27.45v112.080l-24.54-24.55-19.41 19.41 57.51 57.5z"></path>
<path d="M391.22 107.33v112.080h27.44v-111.78l24.25 24.25 19.4-19.41-57.54-57.5-57.51 57.5 19.41 19.41z"></path>
</svg>
