<!-- Generated by IcoMoon.io -->
<svg version="1.1" xmlns="http://www.w3.org/2000/svg" width="512" height="512" viewBox="0 0 512 512">
<title>icon-dc_microsoft-teams</title>
<path d="M418.3 185.090c25.21 0 45.65-20.44 45.65-45.65s-20.44-45.65-45.65-45.65c-25.21 0-45.65 20.44-45.65 45.65 0 25.22 20.44 45.65 45.65 45.65z"></path>
<path d="M393.96 397.55c2.94 0.37 5.93 0.56 8.96 0.56h0.33c39.12 0 70.83-31.71 70.83-70.83v-102.63c0-10.64-8.63-19.27-19.27-19.27h-54.91c3.11 5.88 4.82 12.6 4.7 19.71v116.6c0.43 19.8-3.4 38.71-10.64 55.86z"></path>
<path d="M354.44 378.93c-13.76-12.92-22.36-31.28-22.36-51.64v-100.1h28.91v115l0.010 0.25c0.29 12.89-2.060 25.23-6.56 36.49z"></path>
<path d="M282.88 184.57c33.32-3.31 59.34-31.42 59.34-65.61 0-36.41-29.52-65.93-65.93-65.93s-65.93 29.52-65.93 65.93c0 1.26 0.040 2.51 0.1 3.75h32.020c22.31 0 40.4 18.090 40.4 40.4v21.46z"></path>
<path d="M239.26 173.53v-7.2h-8.84c2.73 2.64 5.69 5.050 8.84 7.2z"></path>
<path d="M159.61 345.87c-0.010-1.31-0.010-2.62 0.030-3.94v-23.36h10.31v-98.14h38.17v-15.050h31.15v140.49h-79.66z"></path>
<path d="M168.75 389.49h73.72c22.31 0 40.4-18.090 40.4-40.4v-143.71h81.32c10.52 0.26 18.84 8.99 18.59 19.51v117.050c1.47 63.12-48.47 115.49-111.58 117.040-46.22-1.14-85.39-29.56-102.45-69.49z"></path>
<path d="M242.48 144.52c10.27 0 18.59 8.32 18.59 18.59v185.97c0 10.27-8.32 18.59-18.59 18.59h-185.97c-10.27 0-18.59-8.32-18.59-18.59v-185.97c0-10.27 8.32-18.59 18.59-18.59h185.97zM99.070 220.43h38.17v98.14h21.81v-98.14h38.17v-21.81h-98.15v21.81z"></path>
</svg>
