<!-- Generated by IcoMoon.io -->
<svg version="1.1" xmlns="http://www.w3.org/2000/svg" width="512" height="512" viewBox="0 0 512 512">
<title>icon-dc_skyscraper</title>
<path stroke-linejoin="miter" stroke-linecap="butt" stroke-miterlimit="10" stroke-width="12" stroke="#000" fill="#000" d="M73.14 47.020h182.86v417.96h-182.86v-417.96zM229.88 73.14h-130.61v365.71h130.61v-365.71zM282.12 464.98h156.73v-313.47h-156.73v26.12h130.61v261.22h-130.61v26.13zM177.63 164.57h26.12v-52.24h-26.12v52.24zM125.39 164.57h26.12v-52.24h-26.12v52.24zM177.63 242.94h26.12v-52.24h-26.12v52.24zM125.39 242.94h26.12v-52.24h-26.12v52.24zM177.63 321.31h26.12v-52.24h-26.12v52.24zM125.39 321.31h26.12v-52.24h-26.12v52.24zM308.24 256h26.12v-52.24h-26.12v52.24zM308.24 334.37h26.12v-52.24h-26.12v52.24zM360.49 256h26.12v-52.24h-26.12v52.24zM360.49 334.37h26.12v-52.24h-26.12v52.24z"></path>
</svg>
