<!-- Generated by IcoMoon.io -->
<svg version="1.1" xmlns="http://www.w3.org/2000/svg" width="512" height="512" viewBox="0 0 512 512">
<title>icon-dc_feedback</title>
<path d="M442.51 202.8h-32.98c-8.6 0-16.12 4.61-20.3 11.46-13.45-7.25-36.4-16.62-66.010-17.14-4.8 0-7.94 0.070-10.65 0.18l4-18.49c0.28-1.32 0.43-2.66 0.43-3.98 0.020-5.89-1.8-35.68-39.97-43.94-1.060-0.23-2.17-0.37-3.3-0.42-10.76-0.46-24.57-0.92-34.89-1.24l-0.48-30.8c-0.14-8.79-2.48-17.47-6.78-25.090-7.9-14.020-21.24-31.61-39.95-35.84-11.26-2.54-22.49 0.060-33.39 7.74-5.39 3.8-8.45 10.010-8.19 16.63l0.15 3.33c0.95 20.76 2.39 52.11-28.44 76.99-1.27 0.95-2.43 1.8-3.53 2.59-4.36-5.030-10.78-8.23-17.95-8.23h-32.97c-13.11 0-23.77 10.66-23.77 23.77v125.090c0 13.11 10.66 23.77 23.77 23.77h32.98c8.6 0 16.12-4.61 20.3-11.46 13.45 7.25 36.4 16.62 66.010 17.14 4.89 0 9.98-0.070 15.15-0.2l-8.23 17.29-0.26 1.21c-0.28 1.32-0.43 2.66-0.44 3.99-0.020 5.89 1.79 35.69 40.020 43.95l2.33 0.34 0.88 0.070c10.67 0.46 24.54 0.92 34.93 1.25l0.48 30.8c0.14 8.83 2.53 17.59 6.92 25.34 7.88 13.91 21.18 31.38 39.8 35.59 2.79 0.63 5.57 0.94 8.35 0.94 8.4 0 16.75-2.87 24.92-8.59 5.47-3.83 8.58-10.050 8.32-16.63l-0.15-3.42c-0.95-20.76-2.39-52.11 28.44-76.99 1.26-0.95 2.43-1.8 3.53-2.59 4.36 5.030 10.78 8.23 17.95 8.23h32.98c13.11 0 23.77-10.66 23.77-23.77v-125.1c0-13.11-10.67-23.77-23.78-23.77zM100.29 287.86h-32.98c-1.34 0-2.44-1.090-2.44-2.44v-125.1c0-1.35 1.090-2.44 2.44-2.44h32.98c1.34 0 2.44 1.090 2.44 2.44v4.62c-0.010 0.23-0.040 0.46-0.040 0.7v110.45c0 0.24 0.040 0.47 0.040 0.7v8.62c0 1.35-1.1 2.45-2.44 2.45zM124.060 275.060v-108.36c3.3-2.19 6.96-4.78 10.65-7.55l0.28-0.22c39.42-31.69 37.53-72.68 36.52-94.71l-0.090-2.15c5.5-3.65 10.59-4.88 15.52-3.77 8.51 1.92 18.010 11.22 26.060 25.5 2.56 4.54 3.95 9.71 4.030 14.95l0.51 32.69c0.16 10.36 8.4 18.73 18.75 19.050 10.37 0.32 25.090 0.8 36.38 1.28 5.6 1.24 22.91 6.4 23.010 22.74l-5.22 24.16h-0.030l-1.77 7.81c-1.72 7.58-3.78 17.52-5.97 28.040-0.18 0.85-0.35 1.7-0.53 2.55l-7.2 33.31c-0.36 1.5-0.7 2.9-1.020 4.18-0.4 1.58-0.66 3.15-0.9 4.69l-1.41 6.52c-0.58 0.19-1.18 0.37-1.79 0.54-0.14 0.040-0.27 0.070-0.41 0.11-0.15 0.040-0.31 0.080-0.47 0.12-5.010 1.28-12.51 2.55-21.76 3.65-5.74 0.62-11.35 1.080-16.040 1.45-2.14 0.17-4.14 0.33-5.94 0.49-0.31 0.030-0.6 0.090-0.9 0.13-11.57 0.77-24.35 1.24-37.53 1.24-31.24-0.51-53.69-12.61-62.73-18.44zM375.11 352.84l-0.28 0.22c-39.41 31.68-37.53 72.68-36.52 94.7l0.090 2.15c-5.5 3.65-10.59 4.88-15.52 3.76-8.47-1.91-17.92-11.13-25.94-25.29-2.63-4.65-4.070-9.89-4.15-15.16l-0.51-32.7c-0.16-10.35-8.39-18.72-18.74-19.030-10.35-0.32-24.96-0.8-36.13-1.28l-0.5-0.060c-19.78-4.44-22.48-16.92-22.74-21.96l11.66-24.5c0.020-0.030 0.030-0.060 0.040-0.090 0.060-0.020 0.17-0.030 0.26-0.050 8.72-0.57 17.19-1.34 24.92-2.28 8.31-0.94 16.83-2.26 24.15-4.29 1.73-0.47 3.3-0.96 4.7-1.46 0.040-0.010 0.080-0.030 0.12-0.040 0.010 0 0.020-0.010 0.030-0.010 0.040-0.010 0.080-0.030 0.12-0.040 0.1-0.040 0.18-0.090 0.28-0.12 3.23-1.23 5.66-3.090 7.48-5.26 0.020-0.020 0.040-0.040 0.050-0.060 0.36-0.43 0.68-0.87 0.99-1.31 1.080-1.5 1.97-3.16 2.59-4.95 1.4-3.65 1.95-7.34 2.35-10.030 0.020-0.14 0.040-0.28 0.060-0.42l1.77-8.2c2.14-9.060 4.72-21.35 7.26-33.56l4.87-22.53c4.76-0.34 7.48-0.51 15.14-0.51 31.24 0.55 53.7 12.66 62.73 18.48v108.35c-3.31 2.19-6.89 4.72-10.63 7.53zM444.95 351.66c0 1.35-1.090 2.44-2.44 2.44h-32.98c-1.34 0-2.44-1.090-2.44-2.44v-4.62c0.010-0.23 0.040-0.46 0.040-0.7v-110.45c0-0.24-0.040-0.47-0.040-0.7v-8.62c0-1.34 1.090-2.44 2.44-2.44h32.98c1.34 0 2.44 1.090 2.44 2.44v125.090z"></path>
</svg>
