<!-- Generated by IcoMoon.io -->
<svg version="1.1" xmlns="http://www.w3.org/2000/svg" width="512" height="512" viewBox="0 0 512 512">
<title>icon-dc_my-project</title>
<path stroke-linejoin="miter" stroke-linecap="butt" stroke-miterlimit="10" stroke-width="14" stroke="#000" fill="#000" d="M209.45 193.26c28.67-11.45 48.99-39.48 48.99-72.19 0-42.86-34.86-77.72-77.72-77.72s-77.72 34.86-77.72 77.72c0 32.71 20.32 60.74 48.99 72.19-128.87 35.75-107.28 212.66-107.28 275.39h19.43c0-62.95-17.27-256.91 116.58-261.23 37.63-1.21 70.41 17.63 90.67 45.27l20.79 0.060c-17.77-29.95-47.32-51.75-82.73-59.49zM120.27 121.070c0-33.33 27.12-60.45 60.45-60.45s60.45 27.12 60.45 60.45-27.12 60.45-60.45 60.45-60.45-27.12-60.45-60.45z"></path>
<path stroke-linejoin="miter" stroke-linecap="butt" stroke-miterlimit="10" stroke-width="14" stroke="#000" fill="#000" d="M468.65 468.65h-195.53v-64.44c0-12.72 10.36-23.060 23.1-23.060 4.98 0 9.73 1.56 13.73 4.51 3.27 2.48 7.11 3.76 11.16 3.76 10.13 0 18.38-8.22 18.38-18.32s-8.24-18.32-18.38-18.32c-4.050 0-7.88 1.29-11.1 3.72-4.060 3-8.81 4.56-13.79 4.56-12.74 0-23.1-10.35-23.1-23.060v-64.88h65.17c5.5 0 9.49-4.040 9.49-9.61 0-2.17-0.68-4.23-1.97-5.96-4.13-5.43-6.33-11.97-6.33-18.87 0-17.28 14.080-31.34 31.4-31.34s31.4 14.060 31.4 31.34c0 6.9-2.2 13.44-6.37 18.93-1.24 1.67-1.92 3.73-1.92 5.9 0 5.57 3.99 9.61 9.49 9.61h65.17v195.53zM286.14 455.63h169.49v-169.49h-52.15c-12.62 0-22.51-9.94-22.51-22.63 0-4.98 1.57-9.73 4.53-13.72 2.48-3.26 3.77-7.080 3.77-11.11 0-10.1-8.24-18.32-18.38-18.32-10.13 0-18.38 8.22-18.38 18.32 0 4.030 1.29 7.85 3.72 11.050 3.010 4.050 4.58 8.8 4.58 13.78 0 12.69-9.89 22.63-22.51 22.63h-52.15v51.86c0 5.54 4.52 10.040 10.080 10.040 2.18 0 4.25-0.68 6-1.97 5.43-4.11 11.99-6.31 18.89-6.31 17.31 0 31.4 14.060 31.4 31.34s-14.080 31.34-31.4 31.34c-6.91 0-13.46-2.2-18.95-6.35-1.68-1.24-3.75-1.92-5.93-1.92-5.56 0-10.080 4.51-10.080 10.040v51.42z"></path>
</svg>
