<!-- Generated by IcoMoon.io -->
<svg version="1.1" xmlns="http://www.w3.org/2000/svg" width="512" height="512" viewBox="0 0 512 512">
<title>icon-dc_palette</title>
<path d="M221.19 292.92c-28.5 0-51.69 23.19-51.69 51.69s23.19 51.69 51.69 51.69 51.69-23.19 51.69-51.69c0-28.5-23.19-51.69-51.69-51.69zM221.19 366.77c-12.22 0-22.15-9.94-22.15-22.16s9.94-22.15 22.15-22.15c12.22 0 22.15 9.94 22.15 22.15 0 12.22-9.94 22.16-22.15 22.16z"></path>
<path d="M199.030 241.23c0-28.5-23.19-51.69-51.69-51.69s-51.69 23.19-51.69 51.69 23.19 51.69 51.69 51.69 51.69-23.19 51.69-51.69zM147.34 263.39c-12.22 0-22.15-9.94-22.15-22.15s9.94-22.15 22.15-22.15 22.15 9.94 22.15 22.15-9.93 22.15-22.15 22.15z"></path>
<path d="M346.73 263.39c-28.5 0-51.69 23.19-51.69 51.69s23.19 51.69 51.69 51.69 51.69-23.19 51.69-51.69c0-28.51-23.19-51.69-51.69-51.69zM346.73 337.23c-12.22 0-22.15-9.94-22.15-22.16s9.94-22.15 22.15-22.15c12.22 0 22.15 9.94 22.15 22.15 0 12.22-9.94 22.16-22.15 22.16z"></path>
<path d="M420.57 196.92c-12.81 0-24.99 4.030-35.25 11.66l-0.42 0.32c-2.52 1.83-5.5 2.79-8.65 2.79-8.14 0-14.77-6.63-14.77-14.77 0-4.53 2-8.69 5.52-11.52l0.58-0.44c14.9-11.28 23.44-28.45 23.44-47.12 0-23.010-13.52-44.090-34.43-53.7l-1.070-0.46c-30.54-12.87-64.23-19.68-97.41-19.68-122.16 0-221.54 86.13-221.54 192s99.38 192 221.54 192 221.54-86.13 221.54-192c0-32.57-26.5-59.080-59.080-59.080zM258.11 418.46c-105.87 0-192-72.88-192-162.46s86.13-162.46 192-162.46c29.28 0 59 6 85.94 17.36l0.41 0.17c10.36 4.85 17.040 15.34 17.040 26.77 0 9.21-4.17 17.7-11.44 23.35l-0.21 0.15c-11.2 8.33-17.89 21.63-17.89 35.57 0 24.43 19.88 44.31 44.31 44.31 9.76 0 19.020-3.11 26.77-9l0.090-0.070c5.080-3.73 11.11-5.7 17.44-5.7 16.29 0 29.54 13.25 29.54 29.54 0 89.59-86.13 162.47-192 162.47z"></path>
</svg>
